<svg width="343" height="256" viewBox="0 0 343 256" fill="none" xmlns="http://www.w3.org/2000/svg">
<g clip-path="url(#clip0_26960_2)">
<path d="M277.772 90.6351C273.077 39.847 232.354 0 182.219 0C143.426 0 110.206 23.9082 94.899 58.2122C90.2897 56.6984 85.4874 55.6522 80.3957 55.6522C53.7579 55.6522 32.1583 78.0911 32.1583 105.739C32.1583 111.238 33.2195 116.435 34.7952 121.366C14.0746 133.91 0 156.95 0 183.641C0 223.599 31.1935 255.989 69.6762 255.989L262.615 256C307.026 256 343 218.624 343 172.511C343 131.807 314.915 98.0035 277.772 90.6351ZM220.927 195.996C215.868 201.261 207.678 201.261 202.618 195.996L176.624 169.016L150.962 195.673C145.913 200.904 137.755 200.904 132.706 195.673C127.668 190.431 127.668 181.96 132.706 176.718L158.369 150.072L132.385 123.091C127.325 117.827 127.325 109.323 132.385 104.07C137.444 98.8049 145.634 98.8049 150.694 104.07L176.677 131.061L202.683 104.058C207.732 98.816 215.889 98.816 220.938 104.058C225.987 109.301 225.987 117.782 220.938 123.014L194.933 150.016L220.927 176.996C225.998 182.239 225.998 190.765 220.927 195.996Z" fill="#E0BEA2"/>
</g>
<defs>
<clipPath id="clip0_26960_2">
<rect width="343" height="256" fill="white"/>
</clipPath>
</defs>
</svg>
